<svg xmlns="http://www.w3.org/2000/svg" version="1.1" viewBox="-5.59552404411079e-14 -2.39084764272874 5.00000000000006 5.00000000000006">
    <line x1="0" y1="0" x2="5" y2="0" stroke="#DE3163" />
    <line x1="5" y1="0" x2="0.0190265095412725" y2="0.435778713738293" stroke="#DE3163" />
    <line x1="0.0190265095412725" y1="0.435778713738293" x2="4.94306527460231" y2="-0.432462174596363" stroke="#DE3163" />
    <line x1="4.94306527460231" y1="-0.432462174596363" x2="0.113436143156971" y2="0.861633050916241" stroke="#DE3163" />
    <line x1="0.113436143156971" y1="0.861633050916241" x2="4.81189924708651" y2="-0.848467665712112" stroke="#DE3163" />
    <line x1="4.81189924708651" y1="-0.848467665712112" x2="0.280360311903264" y2="1.26462364299139" stroke="#DE3163" />
    <line x1="0.280360311903264" y1="1.26462364299139" x2="4.61048733082546" y2="-1.23537635700861" stroke="#DE3163" />
    <line x1="4.61048733082546" y1="-1.23537635700861" x2="0.514727109380503" y2="1.63250582474663" stroke="#DE3163" />
    <line x1="0.514727109380503" y1="1.63250582474663" x2="4.34494932497538" y2="-1.58143222368608" stroke="#DE3163" />
    <line x1="4.34494932497538" y1="-1.58143222368608" x2="0.809415419042651" y2="1.95410168224667" stroke="#DE3163" />
    <line x1="0.809415419042651" y1="1.95410168224667" x2="4.02335346747533" y2="-1.87612053334824" stroke="#DE3163" />
    <line x1="4.02335346747533" y1="-1.87612053334824" x2="1.1554712857201" y2="2.21963968809672" stroke="#DE3163" />
    <line x1="1.1554712857201" y1="2.21963968809672" x2="3.6554712857201" y2="-2.11048733082548" stroke="#DE3163" />
    <line x1="3.6554712857201" y1="-2.11048733082548" x2="1.54237997701661" y2="2.42105160435778" stroke="#DE3163" />
    <line x1="1.54237997701661" y1="2.42105160435778" x2="3.25248069364493" y2="-2.27741149957177" stroke="#DE3163" />
    <line x1="3.25248069364493" y1="-2.27741149957177" x2="1.95838546813236" y2="2.55221763187358" stroke="#DE3163" />
    <line x1="1.95838546813236" y1="2.55221763187358" x2="2.82662635646697" y2="-2.37182113318747" stroke="#DE3163" />
    <line x1="2.82662635646697" y1="-2.37182113318747" x2="2.39084764272866" y2="2.60915235727126" stroke="#DE3163" />
    <line x1="2.39084764272866" y1="2.60915235727126" x2="2.39084764272864" y2="-2.39084764272874" stroke="#DE3163" />
    <line x1="2.39084764272864" y1="-2.39084764272874" x2="2.82662635646696" y2="2.59012584772998" stroke="#DE3163" />
    <line x1="2.82662635646696" y1="2.59012584772998" x2="1.95838546813227" y2="-2.33391291733105" stroke="#DE3163" />
    <line x1="1.95838546813227" y1="-2.33391291733105" x2="3.25248069364488" y2="2.49571621411429" stroke="#DE3163" />
    <line x1="3.25248069364488" y1="2.49571621411429" x2="1.54237997701655" y2="-2.20274688981526" stroke="#DE3163" />
    <line x1="1.54237997701655" y1="-2.20274688981526" x2="3.65547128572008" y2="2.32879204536798" stroke="#DE3163" />
    <line x1="3.65547128572008" y1="2.32879204536798" x2="1.15547128572007" y2="-2.00133497355422" stroke="#DE3163" />
    <line x1="1.15547128572007" y1="-2.00133497355422" x2="4.02335346747534" y2="2.09442524789072" stroke="#DE3163" />
    <line x1="4.02335346747534" y1="2.09442524789072" x2="0.80941541904263" y2="-1.73579696770416" stroke="#DE3163" />
    <line x1="0.80941541904263" y1="-1.73579696770416" x2="4.34494932497536" y2="1.79973693822858" stroke="#DE3163" />
    <line x1="4.34494932497536" y1="1.79973693822858" x2="0.514727109380448" y2="-1.41420111020409" stroke="#DE3163" />
    <line x1="0.514727109380448" y1="-1.41420111020409" x2="4.61048733082541" y2="1.45368107155113" stroke="#DE3163" />
    <line x1="4.61048733082541" y1="1.45368107155113" x2="0.280360311903193" y2="-1.04631892844882" stroke="#DE3163" />
    <line x1="0.280360311903193" y1="-1.04631892844882" x2="4.81189924708646" y2="1.06677238025465" stroke="#DE3163" />
    <line x1="4.81189924708646" y1="1.06677238025465" x2="0.113436143156888" y2="-0.64332833637362" stroke="#DE3163" />
    <line x1="0.113436143156888" y1="-0.64332833637362" x2="4.94306527460224" y2="0.650766889138937" stroke="#DE3163" />
    <line x1="4.94306527460224" y1="0.650766889138937" x2="0.0190265095412103" y2="-0.217473999195764" stroke="#DE3163" />
    <line x1="0.0190265095412103" y1="-0.217473999195764" x2="4.99999999999994" y2="0.218304714542462" stroke="#DE3163" />
    <line x1="4.99999999999994" y1="0.218304714542462" x2="-5.59552404411079e-14" y2="0.218304714542501" stroke="#DE3163" />
    <line x1="-5.59552404411079e-14" y1="0.218304714542501" x2="4.98097349045866" y2="-0.217473999195873" stroke="#DE3163" />
    <line x1="4.98097349045866" y1="-0.217473999195873" x2="0.0569347253976344" y2="0.650766889138835" stroke="#DE3163" />
    <line x1="0.0569347253976344" y1="0.650766889138835" x2="4.88656385684299" y2="-0.64332833637373" stroke="#DE3163" />
    <line x1="4.88656385684299" y1="-0.64332833637373" x2="0.188100752913471" y2="1.06677238025468" stroke="#DE3163" />
    <line x1="0.188100752913471" y1="1.06677238025468" x2="4.71963968809673" y2="-1.04631892844879" stroke="#DE3163" />
    <line x1="4.71963968809673" y1="-1.04631892844879" x2="0.389512669174548" y2="1.45368107155123" stroke="#DE3163" />
    <line x1="0.389512669174548" y1="1.45368107155123" x2="4.48527289061951" y2="-1.414201110204" stroke="#DE3163" />
    <line x1="4.48527289061951" y1="-1.414201110204" x2="0.6550506750246" y2="1.79973693822867" stroke="#DE3163" />
    <line x1="0.6550506750246" y1="1.79973693822867" x2="4.19058458095728" y2="-1.73579696770413" stroke="#DE3163" />
    <line x1="4.19058458095728" y1="-1.73579696770413" x2="0.976646532524626" y2="2.0944252478908" stroke="#DE3163" />
    <line x1="0.976646532524626" y1="2.0944252478908" x2="3.84452871427983" y2="-2.00133497355417" stroke="#DE3163" />
    <line x1="3.84452871427983" y1="-2.00133497355417" x2="1.34452871427983" y2="2.32879204536802" stroke="#DE3163" />
    <line x1="1.34452871427983" y1="2.32879204536802" x2="3.45762002298335" y2="-2.20274688981522" stroke="#DE3163" />
    <line x1="3.45762002298335" y1="-2.20274688981522" x2="1.7475193063551" y2="2.49571621411435" stroke="#DE3163" />
    <line x1="1.7475193063551" y1="2.49571621411435" x2="3.04161453186763" y2="-2.333912917331" stroke="#DE3163" />
    <line x1="3.04161453186763" y1="-2.333912917331" x2="2.17337364353302" y2="2.59012584773004" stroke="#DE3163" />
    <line x1="2.17337364353302" y1="2.59012584773004" x2="2.6091523572713" y2="-2.39084764272869" stroke="#DE3163" />
    <line x1="2.6091523572713" y1="-2.39084764272869" x2="2.60915235727129" y2="2.60915235727131" stroke="#DE3163" />
    <line x1="2.60915235727129" y1="2.60915235727131" x2="2.17337364353289" y2="-2.3718211331874" stroke="#DE3163" />
    <line x1="2.17337364353289" y1="-2.3718211331874" x2="3.04161453186762" y2="2.55221763187362" stroke="#DE3163" />
    <line x1="3.04161453186762" y1="2.55221763187362" x2="1.74751930635497" y2="-2.27741149957171" stroke="#DE3163" />
    <line x1="1.74751930635497" y1="-2.27741149957171" x2="3.45762002298333" y2="2.42105160435783" stroke="#DE3163" />
    <line x1="3.45762002298333" y1="2.42105160435783" x2="1.34452871427984" y2="-2.11048733082542" stroke="#DE3163" />
    <line x1="1.34452871427984" y1="-2.11048733082542" x2="3.84452871427994" y2="2.21963968809671" stroke="#DE3163" />
    <line x1="3.84452871427994" y1="2.21963968809671" x2="0.976646532524637" y2="-1.8761205333482" stroke="#DE3163" />
    <line x1="0.976646532524637" y1="-1.8761205333482" x2="4.19058458095738" y2="1.95410168224666" stroke="#DE3163" />
    <line x1="4.19058458095738" y1="1.95410168224666" x2="0.655050675024618" y2="-1.58143222368606" stroke="#DE3163" />
    <line x1="0.655050675024618" y1="-1.58143222368606" x2="4.4852728906196" y2="1.63250582474652" stroke="#DE3163" />
    <line x1="4.4852728906196" y1="1.63250582474652" x2="0.389512669174656" y2="-1.23537635700872" stroke="#DE3163" />
    <line x1="0.389512669174656" y1="-1.23537635700872" x2="4.7196396880969" y2="1.2646236429912" stroke="#DE3163" />
    <line x1="4.7196396880969" y1="1.2646236429912" x2="0.188100752913618" y2="-0.848467665712239" stroke="#DE3163" />
    <line x1="0.188100752913618" y1="-0.848467665712239" x2="4.88656385684313" y2="0.861633050916198" stroke="#DE3163" />
    <line x1="4.88656385684313" y1="0.861633050916198" x2="0.0569347253977801" y2="-0.43246217459639" stroke="#DE3163" />
    <line x1="0.0569347253977801" y1="-0.43246217459639" x2="4.98097349045884" y2="0.435778713738132" stroke="#DE3163" />
    <line x1="4.98097349045884" y1="0.435778713738132" x2="1.18127729820117e-13" y2="-1.9595436384634e-13" stroke="#DE3163" />
</svg>